<mxfile host="app.diagrams.net" agent="Mozilla/5.0 (Windows NT 10.0; Win64; x64) AppleWebKit/537.36 (KHTML, like Gecko) Chrome/128.0.0.0 Safari/537.36" version="24.7.15">
  <diagram name="Pagina-1" id="ZAaNKUQ208jyBHNCcalK">
    <mxGraphModel dx="2112" dy="1932" grid="1" gridSize="10" guides="1" tooltips="1" connect="1" arrows="1" fold="1" page="1" pageScale="1" pageWidth="827" pageHeight="1169" math="0" shadow="0">
      <root>
        <mxCell id="0" />
        <mxCell id="1" parent="0" />
        <mxCell id="A4hRRf6fgyUjCyuhx8zS-74" style="edgeStyle=orthogonalEdgeStyle;rounded=0;orthogonalLoop=1;jettySize=auto;html=1;exitX=0.5;exitY=0;exitDx=0;exitDy=0;endArrow=diamond;endFill=1;" parent="1" source="A4hRRf6fgyUjCyuhx8zS-5" target="A4hRRf6fgyUjCyuhx8zS-70" edge="1">
          <mxGeometry relative="1" as="geometry">
            <Array as="points">
              <mxPoint x="414" y="-80" />
              <mxPoint x="260" y="-80" />
              <mxPoint x="260" y="-1" />
            </Array>
          </mxGeometry>
        </mxCell>
        <mxCell id="A4hRRf6fgyUjCyuhx8zS-5" value="Wave" style="swimlane;fontStyle=1;align=center;verticalAlign=top;childLayout=stackLayout;horizontal=1;startSize=26;horizontalStack=0;resizeParent=1;resizeParentMax=0;resizeLast=0;collapsible=1;marginBottom=0;whiteSpace=wrap;html=1;" parent="1" vertex="1">
          <mxGeometry x="294" y="-30" width="240" height="138" as="geometry" />
        </mxCell>
        <mxCell id="A4hRRf6fgyUjCyuhx8zS-67" value="+ waveInfo : IWaveInfo" style="text;strokeColor=none;fillColor=none;align=left;verticalAlign=top;spacingLeft=4;spacingRight=4;overflow=hidden;rotatable=0;points=[[0,0.5],[1,0.5]];portConstraint=eastwest;whiteSpace=wrap;html=1;" parent="A4hRRf6fgyUjCyuhx8zS-5" vertex="1">
          <mxGeometry y="26" width="240" height="26" as="geometry" />
        </mxCell>
        <mxCell id="c_gD_3OHT6W48HsS_Kz9-3" value="- maxDecoratorCount : int" style="text;strokeColor=none;fillColor=none;align=left;verticalAlign=top;spacingLeft=4;spacingRight=4;overflow=hidden;rotatable=0;points=[[0,0.5],[1,0.5]];portConstraint=eastwest;whiteSpace=wrap;html=1;" vertex="1" parent="A4hRRf6fgyUjCyuhx8zS-5">
          <mxGeometry y="52" width="240" height="26" as="geometry" />
        </mxCell>
        <mxCell id="c_gD_3OHT6W48HsS_Kz9-4" value="- possibleDecorators : List&amp;lt;Type&amp;gt;" style="text;strokeColor=none;fillColor=none;align=left;verticalAlign=top;spacingLeft=4;spacingRight=4;overflow=hidden;rotatable=0;points=[[0,0.5],[1,0.5]];portConstraint=eastwest;whiteSpace=wrap;html=1;" vertex="1" parent="A4hRRf6fgyUjCyuhx8zS-5">
          <mxGeometry y="78" width="240" height="26" as="geometry" />
        </mxCell>
        <mxCell id="A4hRRf6fgyUjCyuhx8zS-7" value="" style="line;strokeWidth=1;fillColor=none;align=left;verticalAlign=middle;spacingTop=-1;spacingLeft=3;spacingRight=3;rotatable=0;labelPosition=right;points=[];portConstraint=eastwest;strokeColor=inherit;" parent="A4hRRf6fgyUjCyuhx8zS-5" vertex="1">
          <mxGeometry y="104" width="240" height="8" as="geometry" />
        </mxCell>
        <mxCell id="A4hRRf6fgyUjCyuhx8zS-61" value="GenerateWaveInfo() : IWaveInfo" style="text;strokeColor=none;fillColor=none;align=left;verticalAlign=top;spacingLeft=4;spacingRight=4;overflow=hidden;rotatable=0;points=[[0,0.5],[1,0.5]];portConstraint=eastwest;whiteSpace=wrap;html=1;" parent="A4hRRf6fgyUjCyuhx8zS-5" vertex="1">
          <mxGeometry y="112" width="240" height="26" as="geometry" />
        </mxCell>
        <mxCell id="A4hRRf6fgyUjCyuhx8zS-68" style="edgeStyle=orthogonalEdgeStyle;rounded=0;orthogonalLoop=1;jettySize=auto;html=1;exitX=0.5;exitY=0;exitDx=0;exitDy=0;entryX=1;entryY=0.5;entryDx=0;entryDy=0;endArrow=diamond;endFill=0;" parent="1" source="A4hRRf6fgyUjCyuhx8zS-9" target="A4hRRf6fgyUjCyuhx8zS-67" edge="1">
          <mxGeometry relative="1" as="geometry">
            <Array as="points">
              <mxPoint x="414" y="140" />
              <mxPoint x="554" y="140" />
              <mxPoint x="554" y="10" />
            </Array>
          </mxGeometry>
        </mxCell>
        <mxCell id="A4hRRf6fgyUjCyuhx8zS-9" value="&lt;p style=&quot;margin:0px;margin-top:4px;text-align:center;&quot;&gt;&lt;i&gt;&amp;lt;&amp;lt;Interface&amp;gt;&amp;gt;&lt;/i&gt;&lt;br&gt;&lt;b&gt;IWaveInfo&lt;/b&gt;&lt;/p&gt;&lt;hr size=&quot;1&quot; style=&quot;border-style:solid;&quot;&gt;&lt;p style=&quot;margin:0px;margin-left:4px;&quot;&gt;+ GetSpawnInterval() : int&lt;/p&gt;&lt;p style=&quot;margin:0px;margin-left:4px;&quot;&gt;+ GetGroupInfo() : List&amp;lt;GroupInfo&amp;gt;&lt;/p&gt;" style="verticalAlign=top;align=left;overflow=fill;html=1;whiteSpace=wrap;" parent="1" vertex="1">
          <mxGeometry x="304" y="210" width="220" height="110" as="geometry" />
        </mxCell>
        <mxCell id="A4hRRf6fgyUjCyuhx8zS-15" style="edgeStyle=orthogonalEdgeStyle;rounded=0;orthogonalLoop=1;jettySize=auto;html=1;exitX=0.5;exitY=0;exitDx=0;exitDy=0;endArrow=block;endFill=0;dashed=1;" parent="1" source="A4hRRf6fgyUjCyuhx8zS-11" target="A4hRRf6fgyUjCyuhx8zS-9" edge="1">
          <mxGeometry relative="1" as="geometry" />
        </mxCell>
        <mxCell id="A4hRRf6fgyUjCyuhx8zS-11" value="WaveInfoBaseDecorator&lt;div&gt;&lt;br&gt;&lt;/div&gt;" style="swimlane;fontStyle=1;align=center;verticalAlign=top;childLayout=stackLayout;horizontal=1;startSize=26;horizontalStack=0;resizeParent=1;resizeParentMax=0;resizeLast=0;collapsible=1;marginBottom=0;whiteSpace=wrap;html=1;" parent="1" vertex="1">
          <mxGeometry x="160" y="400" width="210" height="78" as="geometry" />
        </mxCell>
        <mxCell id="A4hRRf6fgyUjCyuhx8zS-14" value="+ GetSpawnInterval() : int" style="text;strokeColor=none;fillColor=none;align=left;verticalAlign=top;spacingLeft=4;spacingRight=4;overflow=hidden;rotatable=0;points=[[0,0.5],[1,0.5]];portConstraint=eastwest;whiteSpace=wrap;html=1;" parent="A4hRRf6fgyUjCyuhx8zS-11" vertex="1">
          <mxGeometry y="26" width="210" height="26" as="geometry" />
        </mxCell>
        <mxCell id="A4hRRf6fgyUjCyuhx8zS-16" value="+ GetGroupInfo() : List&amp;lt;GroupInfo&amp;gt;" style="text;strokeColor=none;fillColor=none;align=left;verticalAlign=top;spacingLeft=4;spacingRight=4;overflow=hidden;rotatable=0;points=[[0,0.5],[1,0.5]];portConstraint=eastwest;whiteSpace=wrap;html=1;" parent="A4hRRf6fgyUjCyuhx8zS-11" vertex="1">
          <mxGeometry y="52" width="210" height="26" as="geometry" />
        </mxCell>
        <mxCell id="A4hRRf6fgyUjCyuhx8zS-39" style="edgeStyle=orthogonalEdgeStyle;rounded=0;orthogonalLoop=1;jettySize=auto;html=1;exitX=0.5;exitY=0;exitDx=0;exitDy=0;endArrow=block;endFill=0;dashed=1;" parent="1" source="A4hRRf6fgyUjCyuhx8zS-33" target="A4hRRf6fgyUjCyuhx8zS-9" edge="1">
          <mxGeometry relative="1" as="geometry">
            <Array as="points">
              <mxPoint x="575" y="360" />
              <mxPoint x="414" y="360" />
            </Array>
          </mxGeometry>
        </mxCell>
        <mxCell id="A4hRRf6fgyUjCyuhx8zS-33" value="SpawnIntervalWaveDecorator&lt;div&gt;&lt;br&gt;&lt;/div&gt;" style="swimlane;fontStyle=1;align=center;verticalAlign=top;childLayout=stackLayout;horizontal=1;startSize=26;horizontalStack=0;resizeParent=1;resizeParentMax=0;resizeLast=0;collapsible=1;marginBottom=0;whiteSpace=wrap;html=1;" parent="1" vertex="1">
          <mxGeometry x="460" y="380" width="230" height="164" as="geometry" />
        </mxCell>
        <mxCell id="A4hRRf6fgyUjCyuhx8zS-34" value="- waveInfo : IWaveInfo&lt;div&gt;&lt;br&gt;&lt;/div&gt;" style="text;strokeColor=none;fillColor=none;align=left;verticalAlign=top;spacingLeft=4;spacingRight=4;overflow=hidden;rotatable=0;points=[[0,0.5],[1,0.5]];portConstraint=eastwest;whiteSpace=wrap;html=1;" parent="A4hRRf6fgyUjCyuhx8zS-33" vertex="1">
          <mxGeometry y="26" width="230" height="26" as="geometry" />
        </mxCell>
        <mxCell id="A4hRRf6fgyUjCyuhx8zS-41" value="- change : float" style="text;strokeColor=none;fillColor=none;align=left;verticalAlign=top;spacingLeft=4;spacingRight=4;overflow=hidden;rotatable=0;points=[[0,0.5],[1,0.5]];portConstraint=eastwest;whiteSpace=wrap;html=1;" parent="A4hRRf6fgyUjCyuhx8zS-33" vertex="1">
          <mxGeometry y="52" width="230" height="26" as="geometry" />
        </mxCell>
        <mxCell id="c_gD_3OHT6W48HsS_Kz9-7" value="- intervalRange : Vector2" style="text;strokeColor=none;fillColor=none;align=left;verticalAlign=top;spacingLeft=4;spacingRight=4;overflow=hidden;rotatable=0;points=[[0,0.5],[1,0.5]];portConstraint=eastwest;whiteSpace=wrap;html=1;" vertex="1" parent="A4hRRf6fgyUjCyuhx8zS-33">
          <mxGeometry y="78" width="230" height="26" as="geometry" />
        </mxCell>
        <mxCell id="A4hRRf6fgyUjCyuhx8zS-35" value="" style="line;strokeWidth=1;fillColor=none;align=left;verticalAlign=middle;spacingTop=-1;spacingLeft=3;spacingRight=3;rotatable=0;labelPosition=right;points=[];portConstraint=eastwest;strokeColor=inherit;" parent="A4hRRf6fgyUjCyuhx8zS-33" vertex="1">
          <mxGeometry y="104" width="230" height="8" as="geometry" />
        </mxCell>
        <mxCell id="A4hRRf6fgyUjCyuhx8zS-37" value="+ GetSpawnInterval() : int" style="text;strokeColor=none;fillColor=none;align=left;verticalAlign=top;spacingLeft=4;spacingRight=4;overflow=hidden;rotatable=0;points=[[0,0.5],[1,0.5]];portConstraint=eastwest;whiteSpace=wrap;html=1;" parent="A4hRRf6fgyUjCyuhx8zS-33" vertex="1">
          <mxGeometry y="112" width="230" height="26" as="geometry" />
        </mxCell>
        <mxCell id="A4hRRf6fgyUjCyuhx8zS-38" value="+ GetGroupInfo() : List&amp;lt;GroupInfo&amp;gt;" style="text;strokeColor=none;fillColor=none;align=left;verticalAlign=top;spacingLeft=4;spacingRight=4;overflow=hidden;rotatable=0;points=[[0,0.5],[1,0.5]];portConstraint=eastwest;whiteSpace=wrap;html=1;" parent="A4hRRf6fgyUjCyuhx8zS-33" vertex="1">
          <mxGeometry y="138" width="230" height="26" as="geometry" />
        </mxCell>
        <mxCell id="c_gD_3OHT6W48HsS_Kz9-5" style="edgeStyle=orthogonalEdgeStyle;rounded=0;orthogonalLoop=1;jettySize=auto;html=1;exitX=0.5;exitY=0;exitDx=0;exitDy=0;entryX=0.5;entryY=1;entryDx=0;entryDy=0;dashed=1;endArrow=block;endFill=0;" edge="1" parent="1" source="A4hRRf6fgyUjCyuhx8zS-42" target="A4hRRf6fgyUjCyuhx8zS-9">
          <mxGeometry relative="1" as="geometry" />
        </mxCell>
        <mxCell id="A4hRRf6fgyUjCyuhx8zS-42" value="ShapeWaveDecorator" style="swimlane;fontStyle=1;align=center;verticalAlign=top;childLayout=stackLayout;horizontal=1;startSize=26;horizontalStack=0;resizeParent=1;resizeParentMax=0;resizeLast=0;collapsible=1;marginBottom=0;whiteSpace=wrap;html=1;" parent="1" vertex="1">
          <mxGeometry x="309" y="560" width="210" height="138" as="geometry" />
        </mxCell>
        <mxCell id="A4hRRf6fgyUjCyuhx8zS-43" value="waveInfo : IWaveInfo&lt;div&gt;&lt;br&gt;&lt;/div&gt;" style="text;strokeColor=none;fillColor=none;align=left;verticalAlign=top;spacingLeft=4;spacingRight=4;overflow=hidden;rotatable=0;points=[[0,0.5],[1,0.5]];portConstraint=eastwest;whiteSpace=wrap;html=1;" parent="A4hRRf6fgyUjCyuhx8zS-42" vertex="1">
          <mxGeometry y="26" width="210" height="26" as="geometry" />
        </mxCell>
        <mxCell id="T9z3V0rb0f9MsFmui5pd-3" value="shape : Shape" style="text;strokeColor=none;fillColor=none;align=left;verticalAlign=top;spacingLeft=4;spacingRight=4;overflow=hidden;rotatable=0;points=[[0,0.5],[1,0.5]];portConstraint=eastwest;whiteSpace=wrap;html=1;" parent="A4hRRf6fgyUjCyuhx8zS-42" vertex="1">
          <mxGeometry y="52" width="210" height="26" as="geometry" />
        </mxCell>
        <mxCell id="A4hRRf6fgyUjCyuhx8zS-44" value="" style="line;strokeWidth=1;fillColor=none;align=left;verticalAlign=middle;spacingTop=-1;spacingLeft=3;spacingRight=3;rotatable=0;labelPosition=right;points=[];portConstraint=eastwest;strokeColor=inherit;" parent="A4hRRf6fgyUjCyuhx8zS-42" vertex="1">
          <mxGeometry y="78" width="210" height="8" as="geometry" />
        </mxCell>
        <mxCell id="A4hRRf6fgyUjCyuhx8zS-45" value="+ GetSpawnInterval() : int" style="text;strokeColor=none;fillColor=none;align=left;verticalAlign=top;spacingLeft=4;spacingRight=4;overflow=hidden;rotatable=0;points=[[0,0.5],[1,0.5]];portConstraint=eastwest;whiteSpace=wrap;html=1;" parent="A4hRRf6fgyUjCyuhx8zS-42" vertex="1">
          <mxGeometry y="86" width="210" height="26" as="geometry" />
        </mxCell>
        <mxCell id="A4hRRf6fgyUjCyuhx8zS-47" value="+ GetGroupInfo() : List&amp;lt;GroupInfo&amp;gt;" style="text;strokeColor=none;fillColor=none;align=left;verticalAlign=top;spacingLeft=4;spacingRight=4;overflow=hidden;rotatable=0;points=[[0,0.5],[1,0.5]];portConstraint=eastwest;whiteSpace=wrap;html=1;" parent="A4hRRf6fgyUjCyuhx8zS-42" vertex="1">
          <mxGeometry y="112" width="210" height="26" as="geometry" />
        </mxCell>
        <mxCell id="A4hRRf6fgyUjCyuhx8zS-53" style="edgeStyle=orthogonalEdgeStyle;rounded=0;orthogonalLoop=1;jettySize=auto;html=1;exitX=0.5;exitY=0;exitDx=0;exitDy=0;entryX=1;entryY=0.75;entryDx=0;entryDy=0;endArrow=diamond;endFill=1;" parent="1" source="A4hRRf6fgyUjCyuhx8zS-48" target="A4hRRf6fgyUjCyuhx8zS-9" edge="1">
          <mxGeometry relative="1" as="geometry" />
        </mxCell>
        <mxCell id="A4hRRf6fgyUjCyuhx8zS-48" value="GroupInfo" style="swimlane;fontStyle=1;align=center;verticalAlign=top;childLayout=stackLayout;horizontal=1;startSize=26;horizontalStack=0;resizeParent=1;resizeParentMax=0;resizeLast=0;collapsible=1;marginBottom=0;whiteSpace=wrap;html=1;" parent="1" vertex="1">
          <mxGeometry x="560" y="190" width="220" height="164" as="geometry" />
        </mxCell>
        <mxCell id="A4hRRf6fgyUjCyuhx8zS-49" value="+ shape : Shape" style="text;strokeColor=none;fillColor=none;align=left;verticalAlign=top;spacingLeft=4;spacingRight=4;overflow=hidden;rotatable=0;points=[[0,0.5],[1,0.5]];portConstraint=eastwest;whiteSpace=wrap;html=1;" parent="A4hRRf6fgyUjCyuhx8zS-48" vertex="1">
          <mxGeometry y="26" width="220" height="26" as="geometry" />
        </mxCell>
        <mxCell id="A4hRRf6fgyUjCyuhx8zS-52" value="+ direction : Direction" style="text;strokeColor=none;fillColor=none;align=left;verticalAlign=top;spacingLeft=4;spacingRight=4;overflow=hidden;rotatable=0;points=[[0,0.5],[1,0.5]];portConstraint=eastwest;whiteSpace=wrap;html=1;" parent="A4hRRf6fgyUjCyuhx8zS-48" vertex="1">
          <mxGeometry y="52" width="220" height="26" as="geometry" />
        </mxCell>
        <mxCell id="c_gD_3OHT6W48HsS_Kz9-11" value="+ enemyType : EnemyBase" style="text;strokeColor=none;fillColor=none;align=left;verticalAlign=top;spacingLeft=4;spacingRight=4;overflow=hidden;rotatable=0;points=[[0,0.5],[1,0.5]];portConstraint=eastwest;whiteSpace=wrap;html=1;" vertex="1" parent="A4hRRf6fgyUjCyuhx8zS-48">
          <mxGeometry y="78" width="220" height="26" as="geometry" />
        </mxCell>
        <mxCell id="A4hRRf6fgyUjCyuhx8zS-50" value="" style="line;strokeWidth=1;fillColor=none;align=left;verticalAlign=middle;spacingTop=-1;spacingLeft=3;spacingRight=3;rotatable=0;labelPosition=right;points=[];portConstraint=eastwest;strokeColor=inherit;" parent="A4hRRf6fgyUjCyuhx8zS-48" vertex="1">
          <mxGeometry y="104" width="220" height="8" as="geometry" />
        </mxCell>
        <mxCell id="A4hRRf6fgyUjCyuhx8zS-51" value="- GetRandomDirection() : Direction" style="text;strokeColor=none;fillColor=none;align=left;verticalAlign=top;spacingLeft=4;spacingRight=4;overflow=hidden;rotatable=0;points=[[0,0.5],[1,0.5]];portConstraint=eastwest;whiteSpace=wrap;html=1;" parent="A4hRRf6fgyUjCyuhx8zS-48" vertex="1">
          <mxGeometry y="112" width="220" height="26" as="geometry" />
        </mxCell>
        <mxCell id="T9z3V0rb0f9MsFmui5pd-2" value="+ GetRandomEnemy() : EnemyBase" style="text;strokeColor=none;fillColor=none;align=left;verticalAlign=top;spacingLeft=4;spacingRight=4;overflow=hidden;rotatable=0;points=[[0,0.5],[1,0.5]];portConstraint=eastwest;whiteSpace=wrap;html=1;" parent="A4hRRf6fgyUjCyuhx8zS-48" vertex="1">
          <mxGeometry y="138" width="220" height="26" as="geometry" />
        </mxCell>
        <mxCell id="A4hRRf6fgyUjCyuhx8zS-60" style="edgeStyle=orthogonalEdgeStyle;rounded=0;orthogonalLoop=1;jettySize=auto;html=1;exitX=0.5;exitY=0;exitDx=0;exitDy=0;entryX=1;entryY=0.5;entryDx=0;entryDy=0;endArrow=block;endFill=0;dashed=1;" parent="1" source="A4hRRf6fgyUjCyuhx8zS-56" target="A4hRRf6fgyUjCyuhx8zS-49" edge="1">
          <mxGeometry relative="1" as="geometry">
            <Array as="points">
              <mxPoint x="805" y="230" />
            </Array>
          </mxGeometry>
        </mxCell>
        <mxCell id="c_gD_3OHT6W48HsS_Kz9-6" style="edgeStyle=orthogonalEdgeStyle;rounded=0;orthogonalLoop=1;jettySize=auto;html=1;exitX=0.5;exitY=1;exitDx=0;exitDy=0;dashed=1;endArrow=block;endFill=0;" edge="1" parent="1" source="A4hRRf6fgyUjCyuhx8zS-56" target="T9z3V0rb0f9MsFmui5pd-3">
          <mxGeometry relative="1" as="geometry" />
        </mxCell>
        <mxCell id="A4hRRf6fgyUjCyuhx8zS-56" value="&lt;p style=&quot;margin:0px;margin-top:4px;text-align:center;&quot;&gt;&lt;i&gt;&amp;lt;&amp;lt;enumeration&amp;gt;&amp;gt;&lt;/i&gt;&lt;br&gt;&lt;b&gt;Shape&lt;/b&gt;&lt;/p&gt;&lt;hr size=&quot;1&quot; style=&quot;border-style:solid;&quot;&gt;&lt;p style=&quot;margin:0px;margin-left:4px;&quot;&gt;STAR,&lt;/p&gt;&lt;p style=&quot;margin:0px;margin-left:4px;&quot;&gt;SQUARE,&lt;/p&gt;&lt;p style=&quot;margin:0px;margin-left:4px;&quot;&gt;[INSERT_SHAPE]&lt;/p&gt;" style="verticalAlign=top;align=left;overflow=fill;html=1;whiteSpace=wrap;" parent="1" vertex="1">
          <mxGeometry x="740" y="63" width="130" height="100" as="geometry" />
        </mxCell>
        <mxCell id="A4hRRf6fgyUjCyuhx8zS-59" style="edgeStyle=orthogonalEdgeStyle;rounded=0;orthogonalLoop=1;jettySize=auto;html=1;exitX=0.5;exitY=0;exitDx=0;exitDy=0;entryX=1;entryY=0.5;entryDx=0;entryDy=0;endArrow=block;endFill=0;dashed=1;" parent="1" source="A4hRRf6fgyUjCyuhx8zS-57" target="A4hRRf6fgyUjCyuhx8zS-52" edge="1">
          <mxGeometry relative="1" as="geometry">
            <Array as="points">
              <mxPoint x="955" y="255" />
            </Array>
          </mxGeometry>
        </mxCell>
        <mxCell id="A4hRRf6fgyUjCyuhx8zS-57" value="&lt;p style=&quot;margin:0px;margin-top:4px;text-align:center;&quot;&gt;&lt;i&gt;&amp;lt;&amp;lt;enumeration&amp;gt;&amp;gt;&lt;/i&gt;&lt;br&gt;&lt;b&gt;Direction&lt;/b&gt;&lt;/p&gt;&lt;hr size=&quot;1&quot; style=&quot;border-style:solid;&quot;&gt;&lt;p style=&quot;margin:0px;margin-left:4px;&quot;&gt;NORTH,&lt;/p&gt;&lt;p style=&quot;margin:0px;margin-left:4px;&quot;&gt;EAST,&lt;/p&gt;&lt;p style=&quot;margin:0px;margin-left:4px;&quot;&gt;SOUTH,&lt;/p&gt;&lt;p style=&quot;margin:0px;margin-left:4px;&quot;&gt;WEST&lt;/p&gt;" style="verticalAlign=top;align=left;overflow=fill;html=1;whiteSpace=wrap;" parent="1" vertex="1">
          <mxGeometry x="890" y="63" width="130" height="104" as="geometry" />
        </mxCell>
        <mxCell id="MQfxF33sxCKg38-N3flm-3" style="edgeStyle=orthogonalEdgeStyle;rounded=0;orthogonalLoop=1;jettySize=auto;html=1;exitX=0.5;exitY=0;exitDx=0;exitDy=0;entryX=0.5;entryY=1;entryDx=0;entryDy=0;dashed=1;endArrow=block;endFill=0;" parent="1" source="A4hRRf6fgyUjCyuhx8zS-69" target="MQfxF33sxCKg38-N3flm-2" edge="1">
          <mxGeometry relative="1" as="geometry" />
        </mxCell>
        <mxCell id="A4hRRf6fgyUjCyuhx8zS-69" value="WaveHandler&lt;div&gt;&lt;br&gt;&lt;/div&gt;" style="swimlane;fontStyle=1;align=center;verticalAlign=top;childLayout=stackLayout;horizontal=1;startSize=26;horizontalStack=0;resizeParent=1;resizeParentMax=0;resizeLast=0;collapsible=1;marginBottom=0;whiteSpace=wrap;html=1;" parent="1" vertex="1">
          <mxGeometry x="15" y="-40" width="220" height="164" as="geometry" />
        </mxCell>
        <mxCell id="A4hRRf6fgyUjCyuhx8zS-70" value="- currentWave : Wave&lt;div&gt;&lt;br&gt;&lt;/div&gt;" style="text;strokeColor=none;fillColor=none;align=left;verticalAlign=top;spacingLeft=4;spacingRight=4;overflow=hidden;rotatable=0;points=[[0,0.5],[1,0.5]];portConstraint=eastwest;whiteSpace=wrap;html=1;" parent="A4hRRf6fgyUjCyuhx8zS-69" vertex="1">
          <mxGeometry y="26" width="220" height="26" as="geometry" />
        </mxCell>
        <mxCell id="c_gD_3OHT6W48HsS_Kz9-1" value="- waveCount : int" style="text;strokeColor=none;fillColor=none;align=left;verticalAlign=top;spacingLeft=4;spacingRight=4;overflow=hidden;rotatable=0;points=[[0,0.5],[1,0.5]];portConstraint=eastwest;whiteSpace=wrap;html=1;" vertex="1" parent="A4hRRf6fgyUjCyuhx8zS-69">
          <mxGeometry y="52" width="220" height="26" as="geometry" />
        </mxCell>
        <mxCell id="A4hRRf6fgyUjCyuhx8zS-71" value="" style="line;strokeWidth=1;fillColor=none;align=left;verticalAlign=middle;spacingTop=-1;spacingLeft=3;spacingRight=3;rotatable=0;labelPosition=right;points=[];portConstraint=eastwest;strokeColor=inherit;" parent="A4hRRf6fgyUjCyuhx8zS-69" vertex="1">
          <mxGeometry y="78" width="220" height="8" as="geometry" />
        </mxCell>
        <mxCell id="A4hRRf6fgyUjCyuhx8zS-72" value="- GenerateWave() : Wave" style="text;strokeColor=none;fillColor=none;align=left;verticalAlign=top;spacingLeft=4;spacingRight=4;overflow=hidden;rotatable=0;points=[[0,0.5],[1,0.5]];portConstraint=eastwest;whiteSpace=wrap;html=1;" parent="A4hRRf6fgyUjCyuhx8zS-69" vertex="1">
          <mxGeometry y="86" width="220" height="26" as="geometry" />
        </mxCell>
        <mxCell id="A4hRRf6fgyUjCyuhx8zS-76" value="- CreateNewWave(int) : void &amp;lt;event&amp;gt;" style="text;strokeColor=none;fillColor=none;align=left;verticalAlign=top;spacingLeft=4;spacingRight=4;overflow=hidden;rotatable=0;points=[[0,0.5],[1,0.5]];portConstraint=eastwest;whiteSpace=wrap;html=1;" parent="A4hRRf6fgyUjCyuhx8zS-69" vertex="1">
          <mxGeometry y="112" width="220" height="26" as="geometry" />
        </mxCell>
        <mxCell id="c_gD_3OHT6W48HsS_Kz9-2" value="- OnWaveEnd(int) : void &amp;lt;event&amp;gt;" style="text;strokeColor=none;fillColor=none;align=left;verticalAlign=top;spacingLeft=4;spacingRight=4;overflow=hidden;rotatable=0;points=[[0,0.5],[1,0.5]];portConstraint=eastwest;whiteSpace=wrap;html=1;" vertex="1" parent="A4hRRf6fgyUjCyuhx8zS-69">
          <mxGeometry y="138" width="220" height="26" as="geometry" />
        </mxCell>
        <mxCell id="lJ5PHofeOfsGU0Xv9PLx-1" style="edgeStyle=orthogonalEdgeStyle;rounded=0;orthogonalLoop=1;jettySize=auto;html=1;exitX=0.5;exitY=0;exitDx=0;exitDy=0;endArrow=block;endFill=0;" parent="1" source="8auboDsnmTtv3Tf3uesc-1" target="A4hRRf6fgyUjCyuhx8zS-76" edge="1">
          <mxGeometry relative="1" as="geometry" />
        </mxCell>
        <mxCell id="8auboDsnmTtv3Tf3uesc-1" value="EventSystem&amp;lt;T&amp;gt;" style="swimlane;fontStyle=1;align=center;verticalAlign=top;childLayout=stackLayout;horizontal=1;startSize=26;horizontalStack=0;resizeParent=1;resizeParentMax=0;resizeLast=0;collapsible=1;marginBottom=0;whiteSpace=wrap;html=1;" parent="1" vertex="1">
          <mxGeometry x="-445" y="80" width="340" height="138" as="geometry" />
        </mxCell>
        <mxCell id="8auboDsnmTtv3Tf3uesc-2" value="&lt;u&gt;events&lt;/u&gt; :Dictionary&amp;lt;EventType, Action&amp;lt;T&amp;gt;&amp;gt;" style="text;strokeColor=none;fillColor=none;align=left;verticalAlign=top;spacingLeft=4;spacingRight=4;overflow=hidden;rotatable=0;points=[[0,0.5],[1,0.5]];portConstraint=eastwest;whiteSpace=wrap;html=1;" parent="8auboDsnmTtv3Tf3uesc-1" vertex="1">
          <mxGeometry y="26" width="340" height="26" as="geometry" />
        </mxCell>
        <mxCell id="8auboDsnmTtv3Tf3uesc-3" value="" style="line;strokeWidth=1;fillColor=none;align=left;verticalAlign=middle;spacingTop=-1;spacingLeft=3;spacingRight=3;rotatable=0;labelPosition=right;points=[];portConstraint=eastwest;strokeColor=inherit;" parent="8auboDsnmTtv3Tf3uesc-1" vertex="1">
          <mxGeometry y="52" width="340" height="8" as="geometry" />
        </mxCell>
        <mxCell id="8auboDsnmTtv3Tf3uesc-4" value="&lt;u&gt;AddListener(EventType event, Action&amp;lt;T&amp;gt; function) : void&lt;/u&gt;" style="text;strokeColor=none;fillColor=none;align=left;verticalAlign=top;spacingLeft=4;spacingRight=4;overflow=hidden;rotatable=0;points=[[0,0.5],[1,0.5]];portConstraint=eastwest;whiteSpace=wrap;html=1;" parent="8auboDsnmTtv3Tf3uesc-1" vertex="1">
          <mxGeometry y="60" width="340" height="26" as="geometry" />
        </mxCell>
        <mxCell id="8auboDsnmTtv3Tf3uesc-6" value="&lt;u&gt;RemoveListener(EvetnType event, Action&amp;lt;T&amp;gt; function) : void&lt;/u&gt;" style="text;strokeColor=none;fillColor=none;align=left;verticalAlign=top;spacingLeft=4;spacingRight=4;overflow=hidden;rotatable=0;points=[[0,0.5],[1,0.5]];portConstraint=eastwest;whiteSpace=wrap;html=1;" parent="8auboDsnmTtv3Tf3uesc-1" vertex="1">
          <mxGeometry y="86" width="340" height="26" as="geometry" />
        </mxCell>
        <mxCell id="8auboDsnmTtv3Tf3uesc-7" value="&lt;u&gt;InvokeEvent(EventType eventType, T arg) : void&lt;/u&gt;" style="text;strokeColor=none;fillColor=none;align=left;verticalAlign=top;spacingLeft=4;spacingRight=4;overflow=hidden;rotatable=0;points=[[0,0.5],[1,0.5]];portConstraint=eastwest;whiteSpace=wrap;html=1;" parent="8auboDsnmTtv3Tf3uesc-1" vertex="1">
          <mxGeometry y="112" width="340" height="26" as="geometry" />
        </mxCell>
        <mxCell id="8auboDsnmTtv3Tf3uesc-10" style="edgeStyle=none;curved=0;rounded=0;orthogonalLoop=1;jettySize=auto;html=1;exitX=0.5;exitY=0;exitDx=0;exitDy=0;fontSize=12;startSize=8;endSize=8;entryX=0;entryY=0.5;entryDx=0;entryDy=0;strokeColor=none;flowAnimation=1;" parent="1" source="8auboDsnmTtv3Tf3uesc-5" target="8auboDsnmTtv3Tf3uesc-2" edge="1">
          <mxGeometry relative="1" as="geometry">
            <mxPoint x="-245.3529411764705" y="150" as="targetPoint" />
            <Array as="points">
              <mxPoint x="-245" y="179" />
            </Array>
          </mxGeometry>
        </mxCell>
        <mxCell id="T9z3V0rb0f9MsFmui5pd-1" style="edgeStyle=orthogonalEdgeStyle;rounded=0;orthogonalLoop=1;jettySize=auto;html=1;exitX=0.5;exitY=0;exitDx=0;exitDy=0;dashed=1;endArrow=block;endFill=0;" parent="1" source="8auboDsnmTtv3Tf3uesc-5" target="8auboDsnmTtv3Tf3uesc-1" edge="1">
          <mxGeometry relative="1" as="geometry" />
        </mxCell>
        <mxCell id="8auboDsnmTtv3Tf3uesc-5" value="&lt;p style=&quot;margin:0px;margin-top:4px;text-align:center;&quot;&gt;&lt;i&gt;&amp;lt;&amp;lt;enumeration&amp;gt;&amp;gt;&lt;/i&gt;&lt;br&gt;&lt;b&gt;EventType&lt;/b&gt;&lt;/p&gt;&lt;hr size=&quot;1&quot; style=&quot;border-style:solid;&quot;&gt;&lt;p style=&quot;margin:0px;margin-left:4px;&quot;&gt;WAVE_GENERATE,&lt;br&gt;&lt;/p&gt;&lt;p style=&quot;margin:0px;margin-left:4px;&quot;&gt;WAVE_START,&lt;/p&gt;&lt;p style=&quot;margin:0px;margin-left:4px;&quot;&gt;WAVE_END&lt;/p&gt;" style="verticalAlign=top;align=left;overflow=fill;html=1;whiteSpace=wrap;" parent="1" vertex="1">
          <mxGeometry x="-340" y="260" width="130" height="100" as="geometry" />
        </mxCell>
        <mxCell id="MQfxF33sxCKg38-N3flm-4" style="edgeStyle=orthogonalEdgeStyle;rounded=0;orthogonalLoop=1;jettySize=auto;html=1;exitX=0.5;exitY=0;exitDx=0;exitDy=0;entryX=0;entryY=0.5;entryDx=0;entryDy=0;dashed=1;endArrow=block;endFill=0;" parent="1" source="lJ5PHofeOfsGU0Xv9PLx-2" target="MQfxF33sxCKg38-N3flm-2" edge="1">
          <mxGeometry relative="1" as="geometry">
            <Array as="points">
              <mxPoint x="85" y="167" />
              <mxPoint x="85" y="140" />
              <mxPoint x="-30" y="140" />
              <mxPoint x="-30" y="-175" />
            </Array>
          </mxGeometry>
        </mxCell>
        <mxCell id="lJ5PHofeOfsGU0Xv9PLx-2" value="EnemyHandler" style="swimlane;fontStyle=1;align=center;verticalAlign=top;childLayout=stackLayout;horizontal=1;startSize=26;horizontalStack=0;resizeParent=1;resizeParentMax=0;resizeLast=0;collapsible=1;marginBottom=0;whiteSpace=wrap;html=1;" parent="1" vertex="1">
          <mxGeometry x="-15" y="167" width="250" height="138" as="geometry" />
        </mxCell>
        <mxCell id="lJ5PHofeOfsGU0Xv9PLx-3" value="- enemyPool : GameObjectPool" style="text;strokeColor=none;fillColor=none;align=left;verticalAlign=top;spacingLeft=4;spacingRight=4;overflow=hidden;rotatable=0;points=[[0,0.5],[1,0.5]];portConstraint=eastwest;whiteSpace=wrap;html=1;" parent="lJ5PHofeOfsGU0Xv9PLx-2" vertex="1">
          <mxGeometry y="26" width="250" height="26" as="geometry" />
        </mxCell>
        <mxCell id="lJ5PHofeOfsGU0Xv9PLx-6" value="- enemyPrefab : GameObject" style="text;strokeColor=none;fillColor=none;align=left;verticalAlign=top;spacingLeft=4;spacingRight=4;overflow=hidden;rotatable=0;points=[[0,0.5],[1,0.5]];portConstraint=eastwest;whiteSpace=wrap;html=1;" parent="lJ5PHofeOfsGU0Xv9PLx-2" vertex="1">
          <mxGeometry y="52" width="250" height="26" as="geometry" />
        </mxCell>
        <mxCell id="lJ5PHofeOfsGU0Xv9PLx-4" value="" style="line;strokeWidth=1;fillColor=none;align=left;verticalAlign=middle;spacingTop=-1;spacingLeft=3;spacingRight=3;rotatable=0;labelPosition=right;points=[];portConstraint=eastwest;strokeColor=inherit;" parent="lJ5PHofeOfsGU0Xv9PLx-2" vertex="1">
          <mxGeometry y="78" width="250" height="8" as="geometry" />
        </mxCell>
        <mxCell id="lJ5PHofeOfsGU0Xv9PLx-7" value="- SpawnWave(Wave wave) : void &amp;lt;event&amp;gt;" style="text;strokeColor=none;fillColor=none;align=left;verticalAlign=top;spacingLeft=4;spacingRight=4;overflow=hidden;rotatable=0;points=[[0,0.5],[1,0.5]];portConstraint=eastwest;whiteSpace=wrap;html=1;" parent="lJ5PHofeOfsGU0Xv9PLx-2" vertex="1">
          <mxGeometry y="86" width="250" height="26" as="geometry" />
        </mxCell>
        <mxCell id="lJ5PHofeOfsGU0Xv9PLx-5" value="- InitializeEnemy() : void" style="text;strokeColor=none;fillColor=none;align=left;verticalAlign=top;spacingLeft=4;spacingRight=4;overflow=hidden;rotatable=0;points=[[0,0.5],[1,0.5]];portConstraint=eastwest;whiteSpace=wrap;html=1;" parent="lJ5PHofeOfsGU0Xv9PLx-2" vertex="1">
          <mxGeometry y="112" width="250" height="26" as="geometry" />
        </mxCell>
        <mxCell id="lJ5PHofeOfsGU0Xv9PLx-16" style="edgeStyle=orthogonalEdgeStyle;rounded=0;orthogonalLoop=1;jettySize=auto;html=1;exitX=0.5;exitY=0;exitDx=0;exitDy=0;entryX=0;entryY=0.5;entryDx=0;entryDy=0;endArrow=diamond;endFill=1;" parent="1" source="lJ5PHofeOfsGU0Xv9PLx-9" target="lJ5PHofeOfsGU0Xv9PLx-3" edge="1">
          <mxGeometry relative="1" as="geometry">
            <Array as="points">
              <mxPoint x="-70" y="206" />
            </Array>
          </mxGeometry>
        </mxCell>
        <mxCell id="lJ5PHofeOfsGU0Xv9PLx-9" value="GameObjectPool" style="swimlane;fontStyle=1;align=center;verticalAlign=top;childLayout=stackLayout;horizontal=1;startSize=26;horizontalStack=0;resizeParent=1;resizeParentMax=0;resizeLast=0;collapsible=1;marginBottom=0;whiteSpace=wrap;html=1;" parent="1" vertex="1">
          <mxGeometry x="-190" y="340" width="240" height="164" as="geometry" />
        </mxCell>
        <mxCell id="lJ5PHofeOfsGU0Xv9PLx-13" value="+ maxCount : int" style="text;strokeColor=none;fillColor=none;align=left;verticalAlign=top;spacingLeft=4;spacingRight=4;overflow=hidden;rotatable=0;points=[[0,0.5],[1,0.5]];portConstraint=eastwest;whiteSpace=wrap;html=1;" parent="lJ5PHofeOfsGU0Xv9PLx-9" vertex="1">
          <mxGeometry y="26" width="240" height="26" as="geometry" />
        </mxCell>
        <mxCell id="lJ5PHofeOfsGU0Xv9PLx-10" value="+ pooledObjects : List&amp;lt;GameObject&amp;gt;" style="text;strokeColor=none;fillColor=none;align=left;verticalAlign=top;spacingLeft=4;spacingRight=4;overflow=hidden;rotatable=0;points=[[0,0.5],[1,0.5]];portConstraint=eastwest;whiteSpace=wrap;html=1;" parent="lJ5PHofeOfsGU0Xv9PLx-9" vertex="1">
          <mxGeometry y="52" width="240" height="26" as="geometry" />
        </mxCell>
        <mxCell id="lJ5PHofeOfsGU0Xv9PLx-11" value="" style="line;strokeWidth=1;fillColor=none;align=left;verticalAlign=middle;spacingTop=-1;spacingLeft=3;spacingRight=3;rotatable=0;labelPosition=right;points=[];portConstraint=eastwest;strokeColor=inherit;" parent="lJ5PHofeOfsGU0Xv9PLx-9" vertex="1">
          <mxGeometry y="78" width="240" height="8" as="geometry" />
        </mxCell>
        <mxCell id="lJ5PHofeOfsGU0Xv9PLx-12" value="+ AcquireObject() : GameObject" style="text;strokeColor=none;fillColor=none;align=left;verticalAlign=top;spacingLeft=4;spacingRight=4;overflow=hidden;rotatable=0;points=[[0,0.5],[1,0.5]];portConstraint=eastwest;whiteSpace=wrap;html=1;" parent="lJ5PHofeOfsGU0Xv9PLx-9" vertex="1">
          <mxGeometry y="86" width="240" height="26" as="geometry" />
        </mxCell>
        <mxCell id="lJ5PHofeOfsGU0Xv9PLx-14" value="+ ReleaseObject(GameObject obj) : void" style="text;strokeColor=none;fillColor=none;align=left;verticalAlign=top;spacingLeft=4;spacingRight=4;overflow=hidden;rotatable=0;points=[[0,0.5],[1,0.5]];portConstraint=eastwest;whiteSpace=wrap;html=1;" parent="lJ5PHofeOfsGU0Xv9PLx-9" vertex="1">
          <mxGeometry y="112" width="240" height="26" as="geometry" />
        </mxCell>
        <mxCell id="lJ5PHofeOfsGU0Xv9PLx-15" value="- CreateObjects() : void" style="text;strokeColor=none;fillColor=none;align=left;verticalAlign=top;spacingLeft=4;spacingRight=4;overflow=hidden;rotatable=0;points=[[0,0.5],[1,0.5]];portConstraint=eastwest;whiteSpace=wrap;html=1;" parent="lJ5PHofeOfsGU0Xv9PLx-9" vertex="1">
          <mxGeometry y="138" width="240" height="26" as="geometry" />
        </mxCell>
        <mxCell id="MQfxF33sxCKg38-N3flm-2" value="MonoBehaviour" style="html=1;whiteSpace=wrap;" parent="1" vertex="1">
          <mxGeometry x="70" y="-200" width="110" height="50" as="geometry" />
        </mxCell>
        <mxCell id="c_gD_3OHT6W48HsS_Kz9-8" style="edgeStyle=orthogonalEdgeStyle;rounded=0;orthogonalLoop=1;jettySize=auto;html=1;exitX=0;exitY=0.5;exitDx=0;exitDy=0;entryX=0.75;entryY=1;entryDx=0;entryDy=0;endArrow=diamond;endFill=1;" edge="1" parent="1" source="A4hRRf6fgyUjCyuhx8zS-34" target="A4hRRf6fgyUjCyuhx8zS-9">
          <mxGeometry relative="1" as="geometry">
            <Array as="points">
              <mxPoint x="440" y="419" />
              <mxPoint x="440" y="340" />
              <mxPoint x="469" y="340" />
            </Array>
          </mxGeometry>
        </mxCell>
        <mxCell id="c_gD_3OHT6W48HsS_Kz9-9" style="edgeStyle=orthogonalEdgeStyle;rounded=0;orthogonalLoop=1;jettySize=auto;html=1;exitX=0;exitY=0.5;exitDx=0;exitDy=0;entryX=0.25;entryY=1;entryDx=0;entryDy=0;endArrow=diamond;endFill=1;" edge="1" parent="1" source="A4hRRf6fgyUjCyuhx8zS-43" target="A4hRRf6fgyUjCyuhx8zS-9">
          <mxGeometry relative="1" as="geometry">
            <Array as="points">
              <mxPoint x="289" y="599" />
              <mxPoint x="289" y="520" />
              <mxPoint x="390" y="520" />
              <mxPoint x="390" y="340" />
              <mxPoint x="359" y="340" />
            </Array>
          </mxGeometry>
        </mxCell>
        <mxCell id="c_gD_3OHT6W48HsS_Kz9-17" style="edgeStyle=orthogonalEdgeStyle;rounded=0;orthogonalLoop=1;jettySize=auto;html=1;exitX=0.5;exitY=0;exitDx=0;exitDy=0;entryX=1;entryY=0.5;entryDx=0;entryDy=0;endArrow=diamond;endFill=1;" edge="1" parent="1" source="c_gD_3OHT6W48HsS_Kz9-13" target="T9z3V0rb0f9MsFmui5pd-2">
          <mxGeometry relative="1" as="geometry" />
        </mxCell>
        <mxCell id="c_gD_3OHT6W48HsS_Kz9-64" style="edgeStyle=orthogonalEdgeStyle;rounded=0;orthogonalLoop=1;jettySize=auto;html=1;exitX=1;exitY=0.5;exitDx=0;exitDy=0;entryX=1;entryY=0.5;entryDx=0;entryDy=0;endArrow=diamond;endFill=1;" edge="1" parent="1" source="c_gD_3OHT6W48HsS_Kz9-13" target="c_gD_3OHT6W48HsS_Kz9-60">
          <mxGeometry relative="1" as="geometry" />
        </mxCell>
        <mxCell id="c_gD_3OHT6W48HsS_Kz9-63" style="edgeStyle=orthogonalEdgeStyle;rounded=0;orthogonalLoop=1;jettySize=auto;html=1;exitX=0.5;exitY=0;exitDx=0;exitDy=0;entryX=1;entryY=0.5;entryDx=0;entryDy=0;dashed=1;endArrow=block;endFill=0;" edge="1" parent="1" source="c_gD_3OHT6W48HsS_Kz9-59" target="MQfxF33sxCKg38-N3flm-2">
          <mxGeometry relative="1" as="geometry" />
        </mxCell>
        <mxCell id="c_gD_3OHT6W48HsS_Kz9-66" style="edgeStyle=orthogonalEdgeStyle;rounded=0;orthogonalLoop=1;jettySize=auto;html=1;exitX=0.5;exitY=0;exitDx=0;exitDy=0;dashed=1;endArrow=block;endFill=0;" edge="1" parent="1" source="c_gD_3OHT6W48HsS_Kz9-59" target="c_gD_3OHT6W48HsS_Kz9-65">
          <mxGeometry relative="1" as="geometry" />
        </mxCell>
        <mxCell id="c_gD_3OHT6W48HsS_Kz9-59" value="Enemy" style="swimlane;fontStyle=1;align=center;verticalAlign=top;childLayout=stackLayout;horizontal=1;startSize=26;horizontalStack=0;resizeParent=1;resizeParentMax=0;resizeLast=0;collapsible=1;marginBottom=0;whiteSpace=wrap;html=1;" vertex="1" parent="1">
          <mxGeometry x="650" y="-90" width="160" height="86" as="geometry" />
        </mxCell>
        <mxCell id="c_gD_3OHT6W48HsS_Kz9-60" value="- enemyType : EnemyBase" style="text;strokeColor=none;fillColor=none;align=left;verticalAlign=top;spacingLeft=4;spacingRight=4;overflow=hidden;rotatable=0;points=[[0,0.5],[1,0.5]];portConstraint=eastwest;whiteSpace=wrap;html=1;" vertex="1" parent="c_gD_3OHT6W48HsS_Kz9-59">
          <mxGeometry y="26" width="160" height="26" as="geometry" />
        </mxCell>
        <mxCell id="c_gD_3OHT6W48HsS_Kz9-61" value="" style="line;strokeWidth=1;fillColor=none;align=left;verticalAlign=middle;spacingTop=-1;spacingLeft=3;spacingRight=3;rotatable=0;labelPosition=right;points=[];portConstraint=eastwest;strokeColor=inherit;" vertex="1" parent="c_gD_3OHT6W48HsS_Kz9-59">
          <mxGeometry y="52" width="160" height="8" as="geometry" />
        </mxCell>
        <mxCell id="c_gD_3OHT6W48HsS_Kz9-62" value="+ Setup(EnemyBase) : void" style="text;strokeColor=none;fillColor=none;align=left;verticalAlign=top;spacingLeft=4;spacingRight=4;overflow=hidden;rotatable=0;points=[[0,0.5],[1,0.5]];portConstraint=eastwest;whiteSpace=wrap;html=1;" vertex="1" parent="c_gD_3OHT6W48HsS_Kz9-59">
          <mxGeometry y="60" width="160" height="26" as="geometry" />
        </mxCell>
        <mxCell id="c_gD_3OHT6W48HsS_Kz9-65" value="&lt;p style=&quot;margin:0px;margin-top:4px;text-align:center;&quot;&gt;&lt;i&gt;&amp;lt;&amp;lt;Interface&amp;gt;&amp;gt;&lt;/i&gt;&lt;br&gt;&lt;b&gt;IEnemy&lt;/b&gt;&lt;/p&gt;&lt;hr size=&quot;1&quot; style=&quot;border-style:solid;&quot;&gt;&lt;p style=&quot;margin:0px;margin-left:4px;&quot;&gt;+ Setup(EnemyBase) : void&lt;/p&gt;" style="verticalAlign=top;align=left;overflow=fill;html=1;whiteSpace=wrap;" vertex="1" parent="1">
          <mxGeometry x="850" y="-230" width="190" height="70" as="geometry" />
        </mxCell>
        <mxCell id="c_gD_3OHT6W48HsS_Kz9-68" value="" style="group;fillColor=none;fillStyle=dashed;strokeWidth=2;perimeterSpacing=5;container=0;" vertex="1" connectable="0" parent="1">
          <mxGeometry x="810" y="380" width="600" height="462" as="geometry" />
        </mxCell>
        <mxCell id="c_gD_3OHT6W48HsS_Kz9-13" value="EnemyBase" style="swimlane;fontStyle=1;align=center;verticalAlign=top;childLayout=stackLayout;horizontal=1;startSize=26;horizontalStack=0;resizeParent=1;resizeParentMax=0;resizeLast=0;collapsible=1;marginBottom=0;whiteSpace=wrap;html=1;" vertex="1" parent="1">
          <mxGeometry x="940" y="380" width="160" height="34" as="geometry" />
        </mxCell>
        <mxCell id="c_gD_3OHT6W48HsS_Kz9-15" value="" style="line;strokeWidth=1;fillColor=none;align=left;verticalAlign=middle;spacingTop=-1;spacingLeft=3;spacingRight=3;rotatable=0;labelPosition=right;points=[];portConstraint=eastwest;strokeColor=inherit;" vertex="1" parent="c_gD_3OHT6W48HsS_Kz9-13">
          <mxGeometry y="26" width="160" height="8" as="geometry" />
        </mxCell>
        <mxCell id="c_gD_3OHT6W48HsS_Kz9-18" value="EnemyArcher" style="swimlane;fontStyle=1;align=center;verticalAlign=top;childLayout=stackLayout;horizontal=1;startSize=26;horizontalStack=0;resizeParent=1;resizeParentMax=0;resizeLast=0;collapsible=1;marginBottom=0;whiteSpace=wrap;html=1;" vertex="1" parent="1">
          <mxGeometry x="1040" y="542" width="160" height="86" as="geometry" />
        </mxCell>
        <mxCell id="c_gD_3OHT6W48HsS_Kz9-19" value="+ field: type" style="text;strokeColor=none;fillColor=none;align=left;verticalAlign=top;spacingLeft=4;spacingRight=4;overflow=hidden;rotatable=0;points=[[0,0.5],[1,0.5]];portConstraint=eastwest;whiteSpace=wrap;html=1;" vertex="1" parent="c_gD_3OHT6W48HsS_Kz9-18">
          <mxGeometry y="26" width="160" height="26" as="geometry" />
        </mxCell>
        <mxCell id="c_gD_3OHT6W48HsS_Kz9-20" value="" style="line;strokeWidth=1;fillColor=none;align=left;verticalAlign=middle;spacingTop=-1;spacingLeft=3;spacingRight=3;rotatable=0;labelPosition=right;points=[];portConstraint=eastwest;strokeColor=inherit;" vertex="1" parent="c_gD_3OHT6W48HsS_Kz9-18">
          <mxGeometry y="52" width="160" height="8" as="geometry" />
        </mxCell>
        <mxCell id="c_gD_3OHT6W48HsS_Kz9-21" value="+ method(type): type" style="text;strokeColor=none;fillColor=none;align=left;verticalAlign=top;spacingLeft=4;spacingRight=4;overflow=hidden;rotatable=0;points=[[0,0.5],[1,0.5]];portConstraint=eastwest;whiteSpace=wrap;html=1;" vertex="1" parent="c_gD_3OHT6W48HsS_Kz9-18">
          <mxGeometry y="60" width="160" height="26" as="geometry" />
        </mxCell>
        <mxCell id="c_gD_3OHT6W48HsS_Kz9-23" value="EnemyTower" style="swimlane;fontStyle=1;align=center;verticalAlign=top;childLayout=stackLayout;horizontal=1;startSize=26;horizontalStack=0;resizeParent=1;resizeParentMax=0;resizeLast=0;collapsible=1;marginBottom=0;whiteSpace=wrap;html=1;" vertex="1" parent="1">
          <mxGeometry x="857" y="542" width="160" height="86" as="geometry" />
        </mxCell>
        <mxCell id="c_gD_3OHT6W48HsS_Kz9-24" value="+ field: type" style="text;strokeColor=none;fillColor=none;align=left;verticalAlign=top;spacingLeft=4;spacingRight=4;overflow=hidden;rotatable=0;points=[[0,0.5],[1,0.5]];portConstraint=eastwest;whiteSpace=wrap;html=1;" vertex="1" parent="c_gD_3OHT6W48HsS_Kz9-23">
          <mxGeometry y="26" width="160" height="26" as="geometry" />
        </mxCell>
        <mxCell id="c_gD_3OHT6W48HsS_Kz9-25" value="" style="line;strokeWidth=1;fillColor=none;align=left;verticalAlign=middle;spacingTop=-1;spacingLeft=3;spacingRight=3;rotatable=0;labelPosition=right;points=[];portConstraint=eastwest;strokeColor=inherit;" vertex="1" parent="c_gD_3OHT6W48HsS_Kz9-23">
          <mxGeometry y="52" width="160" height="8" as="geometry" />
        </mxCell>
        <mxCell id="c_gD_3OHT6W48HsS_Kz9-26" value="+ method(type): type" style="text;strokeColor=none;fillColor=none;align=left;verticalAlign=top;spacingLeft=4;spacingRight=4;overflow=hidden;rotatable=0;points=[[0,0.5],[1,0.5]];portConstraint=eastwest;whiteSpace=wrap;html=1;" vertex="1" parent="c_gD_3OHT6W48HsS_Kz9-23">
          <mxGeometry y="60" width="160" height="26" as="geometry" />
        </mxCell>
        <mxCell id="c_gD_3OHT6W48HsS_Kz9-28" value="EnemySteelRam" style="swimlane;fontStyle=1;align=center;verticalAlign=top;childLayout=stackLayout;horizontal=1;startSize=26;horizontalStack=0;resizeParent=1;resizeParentMax=0;resizeLast=0;collapsible=1;marginBottom=0;whiteSpace=wrap;html=1;" vertex="1" parent="1">
          <mxGeometry x="1220" y="542" width="160" height="86" as="geometry" />
        </mxCell>
        <mxCell id="c_gD_3OHT6W48HsS_Kz9-29" value="+ field: type" style="text;strokeColor=none;fillColor=none;align=left;verticalAlign=top;spacingLeft=4;spacingRight=4;overflow=hidden;rotatable=0;points=[[0,0.5],[1,0.5]];portConstraint=eastwest;whiteSpace=wrap;html=1;" vertex="1" parent="c_gD_3OHT6W48HsS_Kz9-28">
          <mxGeometry y="26" width="160" height="26" as="geometry" />
        </mxCell>
        <mxCell id="c_gD_3OHT6W48HsS_Kz9-30" value="" style="line;strokeWidth=1;fillColor=none;align=left;verticalAlign=middle;spacingTop=-1;spacingLeft=3;spacingRight=3;rotatable=0;labelPosition=right;points=[];portConstraint=eastwest;strokeColor=inherit;" vertex="1" parent="c_gD_3OHT6W48HsS_Kz9-28">
          <mxGeometry y="52" width="160" height="8" as="geometry" />
        </mxCell>
        <mxCell id="c_gD_3OHT6W48HsS_Kz9-31" value="+ method(type): type" style="text;strokeColor=none;fillColor=none;align=left;verticalAlign=top;spacingLeft=4;spacingRight=4;overflow=hidden;rotatable=0;points=[[0,0.5],[1,0.5]];portConstraint=eastwest;whiteSpace=wrap;html=1;" vertex="1" parent="c_gD_3OHT6W48HsS_Kz9-28">
          <mxGeometry y="60" width="160" height="26" as="geometry" />
        </mxCell>
        <mxCell id="c_gD_3OHT6W48HsS_Kz9-33" value="&lt;p style=&quot;margin:0px;margin-top:4px;text-align:center;&quot;&gt;&lt;i&gt;&amp;lt;&amp;lt;Interface&amp;gt;&amp;gt;&lt;/i&gt;&lt;br&gt;&lt;b&gt;IDamagable&lt;/b&gt;&lt;/p&gt;&lt;hr size=&quot;1&quot; style=&quot;border-style:solid;&quot;&gt;&lt;p style=&quot;margin:0px;margin-left:4px;&quot;&gt;+ Health : float &amp;lt;get&amp;gt;&lt;/p&gt;&lt;hr size=&quot;1&quot; style=&quot;border-style:solid;&quot;&gt;&lt;p style=&quot;margin:0px;margin-left:4px;&quot;&gt;+ Die() : void&lt;/p&gt;" style="verticalAlign=top;align=left;overflow=fill;html=1;whiteSpace=wrap;" vertex="1" parent="1">
          <mxGeometry x="810" y="752" width="190" height="90" as="geometry" />
        </mxCell>
        <mxCell id="c_gD_3OHT6W48HsS_Kz9-36" value="&lt;p style=&quot;margin:0px;margin-top:4px;text-align:center;&quot;&gt;&lt;i&gt;&amp;lt;&amp;lt;Interface&amp;gt;&amp;gt;&lt;/i&gt;&lt;br&gt;&lt;b&gt;IAttacker&lt;/b&gt;&lt;/p&gt;&lt;hr size=&quot;1&quot; style=&quot;border-style:solid;&quot;&gt;&lt;p style=&quot;margin:0px;margin-left:4px;&quot;&gt;+ Damage: float &amp;lt;get&amp;gt;&lt;/p&gt;&lt;hr size=&quot;1&quot; style=&quot;border-style:solid;&quot;&gt;&lt;p style=&quot;margin:0px;margin-left:4px;&quot;&gt;+ Attack() : void&lt;/p&gt;" style="verticalAlign=top;align=left;overflow=fill;html=1;whiteSpace=wrap;" vertex="1" parent="1">
          <mxGeometry x="1017" y="752" width="190" height="90" as="geometry" />
        </mxCell>
        <mxCell id="c_gD_3OHT6W48HsS_Kz9-43" value="&lt;p style=&quot;margin:0px;margin-top:4px;text-align:center;&quot;&gt;&lt;i&gt;&amp;lt;&amp;lt;Interface&amp;gt;&amp;gt;&lt;/i&gt;&lt;br&gt;&lt;b&gt;IMover&lt;/b&gt;&lt;/p&gt;&lt;hr size=&quot;1&quot; style=&quot;border-style:solid;&quot;&gt;&lt;p style=&quot;margin:0px;margin-left:4px;&quot;&gt;+ Speed: float &amp;lt;get&amp;gt;&lt;/p&gt;&lt;hr size=&quot;1&quot; style=&quot;border-style:solid;&quot;&gt;&lt;p style=&quot;margin:0px;margin-left:4px;&quot;&gt;+ Move() : void&lt;/p&gt;" style="verticalAlign=top;align=left;overflow=fill;html=1;whiteSpace=wrap;" vertex="1" parent="1">
          <mxGeometry x="1220" y="752" width="190" height="90" as="geometry" />
        </mxCell>
        <mxCell id="c_gD_3OHT6W48HsS_Kz9-22" style="edgeStyle=orthogonalEdgeStyle;rounded=0;orthogonalLoop=1;jettySize=auto;html=1;exitX=0.5;exitY=0;exitDx=0;exitDy=0;dashed=1;endArrow=block;endFill=0;" edge="1" parent="1" source="c_gD_3OHT6W48HsS_Kz9-18" target="c_gD_3OHT6W48HsS_Kz9-13">
          <mxGeometry relative="1" as="geometry" />
        </mxCell>
        <mxCell id="c_gD_3OHT6W48HsS_Kz9-27" style="edgeStyle=orthogonalEdgeStyle;rounded=0;orthogonalLoop=1;jettySize=auto;html=1;exitX=0.5;exitY=0;exitDx=0;exitDy=0;dashed=1;endArrow=block;endFill=0;" edge="1" parent="1" source="c_gD_3OHT6W48HsS_Kz9-23" target="c_gD_3OHT6W48HsS_Kz9-13">
          <mxGeometry relative="1" as="geometry" />
        </mxCell>
        <mxCell id="c_gD_3OHT6W48HsS_Kz9-32" style="edgeStyle=orthogonalEdgeStyle;rounded=0;orthogonalLoop=1;jettySize=auto;html=1;exitX=0.5;exitY=0;exitDx=0;exitDy=0;dashed=1;endArrow=block;endFill=0;" edge="1" parent="1" source="c_gD_3OHT6W48HsS_Kz9-28" target="c_gD_3OHT6W48HsS_Kz9-13">
          <mxGeometry relative="1" as="geometry" />
        </mxCell>
        <mxCell id="c_gD_3OHT6W48HsS_Kz9-57" style="edgeStyle=orthogonalEdgeStyle;rounded=0;orthogonalLoop=1;jettySize=auto;html=1;exitX=0.5;exitY=0;exitDx=0;exitDy=0;entryX=0.302;entryY=1.026;entryDx=0;entryDy=0;entryPerimeter=0;dashed=1;endArrow=block;endFill=0;" edge="1" parent="1" source="c_gD_3OHT6W48HsS_Kz9-33" target="c_gD_3OHT6W48HsS_Kz9-26">
          <mxGeometry relative="1" as="geometry" />
        </mxCell>
        <mxCell id="c_gD_3OHT6W48HsS_Kz9-58" style="edgeStyle=orthogonalEdgeStyle;rounded=0;orthogonalLoop=1;jettySize=auto;html=1;exitX=0.5;exitY=0;exitDx=0;exitDy=0;entryX=0.683;entryY=1;entryDx=0;entryDy=0;entryPerimeter=0;dashed=1;endArrow=block;endFill=0;" edge="1" parent="1" source="c_gD_3OHT6W48HsS_Kz9-33" target="c_gD_3OHT6W48HsS_Kz9-21">
          <mxGeometry relative="1" as="geometry">
            <Array as="points">
              <mxPoint x="905" y="722" />
              <mxPoint x="1149" y="722" />
            </Array>
          </mxGeometry>
        </mxCell>
        <mxCell id="c_gD_3OHT6W48HsS_Kz9-52" style="edgeStyle=orthogonalEdgeStyle;rounded=0;orthogonalLoop=1;jettySize=auto;html=1;exitX=0.5;exitY=0;exitDx=0;exitDy=0;dashed=1;endArrow=block;endFill=0;" edge="1" parent="1" source="c_gD_3OHT6W48HsS_Kz9-36" target="c_gD_3OHT6W48HsS_Kz9-23">
          <mxGeometry relative="1" as="geometry" />
        </mxCell>
        <mxCell id="c_gD_3OHT6W48HsS_Kz9-55" style="edgeStyle=orthogonalEdgeStyle;rounded=0;orthogonalLoop=1;jettySize=auto;html=1;exitX=0.5;exitY=0;exitDx=0;exitDy=0;entryX=0.313;entryY=0.974;entryDx=0;entryDy=0;entryPerimeter=0;dashed=1;endArrow=block;endFill=0;" edge="1" parent="1" source="c_gD_3OHT6W48HsS_Kz9-36" target="c_gD_3OHT6W48HsS_Kz9-21">
          <mxGeometry relative="1" as="geometry" />
        </mxCell>
        <mxCell id="c_gD_3OHT6W48HsS_Kz9-56" style="edgeStyle=orthogonalEdgeStyle;rounded=0;orthogonalLoop=1;jettySize=auto;html=1;exitX=0.5;exitY=0;exitDx=0;exitDy=0;entryX=0.313;entryY=1;entryDx=0;entryDy=0;entryPerimeter=0;dashed=1;endArrow=block;endFill=0;" edge="1" parent="1" source="c_gD_3OHT6W48HsS_Kz9-36" target="c_gD_3OHT6W48HsS_Kz9-31">
          <mxGeometry relative="1" as="geometry" />
        </mxCell>
        <mxCell id="c_gD_3OHT6W48HsS_Kz9-50" style="edgeStyle=orthogonalEdgeStyle;rounded=0;orthogonalLoop=1;jettySize=auto;html=1;exitX=0.5;exitY=0;exitDx=0;exitDy=0;dashed=1;endArrow=block;endFill=0;" edge="1" parent="1" source="c_gD_3OHT6W48HsS_Kz9-43" target="c_gD_3OHT6W48HsS_Kz9-28">
          <mxGeometry relative="1" as="geometry">
            <Array as="points">
              <mxPoint x="1315" y="652" />
              <mxPoint x="1300" y="652" />
            </Array>
          </mxGeometry>
        </mxCell>
        <mxCell id="c_gD_3OHT6W48HsS_Kz9-51" style="edgeStyle=orthogonalEdgeStyle;rounded=0;orthogonalLoop=1;jettySize=auto;html=1;exitX=0.5;exitY=0;exitDx=0;exitDy=0;dashed=1;endArrow=block;endFill=0;" edge="1" parent="1" source="c_gD_3OHT6W48HsS_Kz9-43" target="c_gD_3OHT6W48HsS_Kz9-18">
          <mxGeometry relative="1" as="geometry">
            <Array as="points">
              <mxPoint x="1315" y="652" />
              <mxPoint x="1120" y="652" />
            </Array>
          </mxGeometry>
        </mxCell>
      </root>
    </mxGraphModel>
  </diagram>
</mxfile>
